<svg xmlns="http://www.w3.org/2000/svg" xmlns:xlink="http://www.w3.org/1999/xlink" width="1080" zoomAndPan="magnify" viewBox="0 0 810 809.999993" height="1080" preserveAspectRatio="xMidYMid meet" version="1.0"><defs><g/><clipPath id="19d30732a6"><path d="M 81 340.714844 L 742.382812 340.714844 L 742.382812 345.378906 L 81 345.378906 Z M 737.71875 345.378906 L 742.382812 345.378906 L 742.382812 390.199219 L 737.71875 390.199219 Z M 81 345.378906 L 85.664062 345.378906 L 85.664062 390.199219 L 81 390.199219 Z M 81 390.199219 L 742.382812 390.199219 L 742.382812 394.863281 L 81 394.863281 Z M 81 390.199219 " clip-rule="nonzero"/></clipPath><clipPath id="4304ac4948"><path d="M 81 351.214844 L 669.890625 351.214844 L 669.890625 384.378906 L 81 384.378906 Z M 81 351.214844 " clip-rule="nonzero"/></clipPath></defs><g clip-path="url(#19d30732a6)"><path fill="#ccb6c8" d="M 81 394.863281 L 81 340.714844 L 742.382812 340.714844 L 742.382812 394.863281 Z M 81 394.863281 " fill-opacity="1" fill-rule="nonzero"/></g><g clip-path="url(#4304ac4948)"><path fill="#ccb6c8" d="M 81 351.214844 L 669.890625 351.214844 L 669.890625 384.378906 L 81 384.378906 Z M 81 351.214844 " fill-opacity="1" fill-rule="nonzero"/></g><g fill="#737373" fill-opacity="1"><g transform="translate(284.358818, 509.26029)"><g><path d="M 18.421875 -52.734375 C 18.421875 -50.972656 18.21875 -49.101562 17.8125 -47.125 C 17.40625 -45.144531 16.875 -43.132812 16.21875 -41.09375 C 15.5625 -39.0625 14.804688 -37.007812 13.953125 -34.9375 C 13.109375 -32.875 12.253906 -30.894531 11.390625 -29 C 10.523438 -27.101562 9.671875 -25.300781 8.828125 -23.59375 C 7.992188 -21.894531 7.253906 -20.378906 6.609375 -19.046875 C 6.722656 -16.753906 6.921875 -14.6875 7.203125 -12.84375 C 7.484375 -11.007812 7.832031 -9.441406 8.25 -8.140625 C 8.664062 -6.835938 9.164062 -5.835938 9.75 -5.140625 C 10.332031 -4.453125 11.003906 -4.109375 11.765625 -4.109375 C 12.597656 -4.109375 13.425781 -4.5 14.25 -5.28125 C 15.070312 -6.0625 15.898438 -7.160156 16.734375 -8.578125 C 17.578125 -10.003906 18.429688 -11.71875 19.296875 -13.71875 C 20.160156 -15.726562 21.039062 -17.976562 21.9375 -20.46875 L 23.5625 -20.046875 C 22.894531 -18.117188 22.140625 -16.085938 21.296875 -13.953125 C 20.460938 -11.816406 19.53125 -9.859375 18.5 -8.078125 C 17.46875 -6.296875 16.34375 -4.816406 15.125 -3.640625 C 13.914062 -2.472656 12.613281 -1.890625 11.21875 -1.890625 C 9.820312 -1.890625 8.648438 -2.320312 7.703125 -3.1875 C 6.753906 -4.050781 5.972656 -5.1875 5.359375 -6.59375 C 4.742188 -8 4.269531 -9.601562 3.9375 -11.40625 C 3.601562 -13.207031 3.351562 -15.039062 3.1875 -16.90625 C 3.019531 -18.78125 2.921875 -20.601562 2.890625 -22.375 C 2.859375 -24.144531 2.84375 -25.710938 2.84375 -27.078125 C 2.84375 -29.617188 2.945312 -32.144531 3.15625 -34.65625 C 3.363281 -37.164062 3.679688 -39.5625 4.109375 -41.84375 C 4.546875 -44.132812 5.070312 -46.265625 5.6875 -48.234375 C 6.300781 -50.203125 7.019531 -51.90625 7.84375 -53.34375 C 8.664062 -54.78125 9.570312 -55.898438 10.5625 -56.703125 C 11.550781 -57.515625 12.632812 -57.921875 13.8125 -57.921875 C 14.644531 -57.921875 15.351562 -57.78125 15.9375 -57.5 C 16.53125 -57.226562 17.003906 -56.851562 17.359375 -56.375 C 17.722656 -55.90625 17.988281 -55.351562 18.15625 -54.71875 C 18.332031 -54.09375 18.421875 -53.429688 18.421875 -52.734375 Z M 6.359375 -28.625 C 6.359375 -27.5625 6.359375 -26.519531 6.359375 -25.5 C 6.359375 -24.488281 6.390625 -23.507812 6.453125 -22.5625 C 7.140625 -23.957031 7.875 -25.484375 8.65625 -27.140625 C 9.4375 -28.804688 10.210938 -30.523438 10.984375 -32.296875 C 11.753906 -34.066406 12.488281 -35.859375 13.1875 -37.671875 C 13.882812 -39.484375 14.5 -41.257812 15.03125 -43 C 15.5625 -44.75 15.984375 -46.410156 16.296875 -47.984375 C 16.617188 -49.554688 16.78125 -50.988281 16.78125 -52.28125 C 16.78125 -52.695312 16.742188 -53.140625 16.671875 -53.609375 C 16.609375 -54.085938 16.484375 -54.53125 16.296875 -54.9375 C 16.117188 -55.34375 15.863281 -55.675781 15.53125 -55.9375 C 15.195312 -56.207031 14.765625 -56.34375 14.234375 -56.34375 C 13.171875 -56.34375 12.15625 -55.648438 11.1875 -54.265625 C 10.226562 -52.878906 9.394531 -50.957031 8.6875 -48.5 C 7.976562 -46.050781 7.410156 -43.128906 6.984375 -39.734375 C 6.566406 -36.347656 6.359375 -32.644531 6.359375 -28.625 Z M 6.359375 -28.625 "/></g></g></g><g fill="#737373" fill-opacity="1"><g transform="translate(302.35744, 509.26029)"><g><path d="M 14.390625 -3.765625 C 15.953125 -3.765625 17.453125 -4.335938 18.890625 -5.484375 C 20.328125 -6.628906 21.453125 -8.289062 22.265625 -10.46875 L 21.9375 -10.46875 C 20.207031 -10.46875 18.609375 -10.757812 17.140625 -11.34375 C 15.671875 -11.925781 14.398438 -12.738281 13.328125 -13.78125 C 12.253906 -14.832031 11.410156 -16.085938 10.796875 -17.546875 C 10.179688 -19.015625 9.875 -20.628906 9.875 -22.390625 C 9.875 -23.367188 10.003906 -24.359375 10.265625 -25.359375 C 10.535156 -26.367188 10.945312 -27.269531 11.5 -28.0625 C 12.0625 -28.851562 12.789062 -29.5 13.6875 -30 C 14.582031 -30.507812 15.644531 -30.765625 16.875 -30.765625 C 17.875 -30.765625 18.859375 -30.5625 19.828125 -30.15625 C 20.804688 -29.75 21.6875 -29.054688 22.46875 -28.078125 C 23.25 -27.109375 23.882812 -25.789062 24.375 -24.125 C 24.863281 -22.46875 25.109375 -20.367188 25.109375 -17.828125 C 25.109375 -16.878906 25.066406 -15.9375 24.984375 -15 C 24.898438 -14.070312 24.75 -13.160156 24.53125 -12.265625 C 25.613281 -12.460938 26.582031 -12.8125 27.4375 -13.3125 C 28.289062 -13.8125 29.039062 -14.414062 29.6875 -15.125 C 30.34375 -15.84375 30.921875 -16.65625 31.421875 -17.5625 C 31.929688 -18.46875 32.394531 -19.4375 32.8125 -20.46875 L 34.453125 -20.046875 C 33.859375 -18.453125 33.175781 -17.097656 32.40625 -15.984375 C 31.644531 -14.867188 30.820312 -13.929688 29.9375 -13.171875 C 29.0625 -12.421875 28.140625 -11.84375 27.171875 -11.4375 C 26.210938 -11.039062 25.21875 -10.769531 24.1875 -10.625 C 23.800781 -9.257812 23.285156 -7.976562 22.640625 -6.78125 C 22.003906 -5.582031 21.222656 -4.535156 20.296875 -3.640625 C 19.378906 -2.742188 18.3125 -2.035156 17.09375 -1.515625 C 15.882812 -1.003906 14.523438 -0.75 13.015625 -0.75 C 11.765625 -0.75 10.503906 -1.003906 9.234375 -1.515625 C 7.960938 -2.035156 6.816406 -2.832031 5.796875 -3.90625 C 4.773438 -4.988281 3.953125 -6.34375 3.328125 -7.96875 C 2.703125 -9.601562 2.390625 -11.550781 2.390625 -13.8125 C 2.390625 -15.289062 2.5625 -16.738281 2.90625 -18.15625 C 3.257812 -19.582031 3.75 -20.929688 4.375 -22.203125 C 5 -23.472656 5.742188 -24.660156 6.609375 -25.765625 C 7.472656 -26.867188 8.410156 -27.820312 9.421875 -28.625 L 10.046875 -27.578125 C 9.398438 -26.992188 8.785156 -26.269531 8.203125 -25.40625 C 7.617188 -24.539062 7.085938 -23.582031 6.609375 -22.53125 C 6.140625 -21.488281 5.765625 -20.390625 5.484375 -19.234375 C 5.203125 -18.078125 5.0625 -16.925781 5.0625 -15.78125 C 5.0625 -13.519531 5.347656 -11.617188 5.921875 -10.078125 C 6.492188 -8.546875 7.222656 -7.3125 8.109375 -6.375 C 9.003906 -5.445312 10.007812 -4.78125 11.125 -4.375 C 12.25 -3.96875 13.335938 -3.765625 14.390625 -3.765625 Z M 16.78125 -29.125 C 16.03125 -29.125 15.332031 -28.960938 14.6875 -28.640625 C 14.050781 -28.328125 13.492188 -27.890625 13.015625 -27.328125 C 12.546875 -26.773438 12.171875 -26.109375 11.890625 -25.328125 C 11.609375 -24.546875 11.46875 -23.679688 11.46875 -22.734375 C 11.46875 -21.078125 11.742188 -19.59375 12.296875 -18.28125 C 12.859375 -16.976562 13.617188 -15.863281 14.578125 -14.9375 C 15.546875 -14.019531 16.671875 -13.316406 17.953125 -12.828125 C 19.234375 -12.335938 20.613281 -12.09375 22.09375 -12.09375 L 22.890625 -12.09375 C 23.117188 -12.957031 23.273438 -13.863281 23.359375 -14.8125 C 23.441406 -15.757812 23.484375 -16.789062 23.484375 -17.90625 C 23.421875 -20.0625 23.203125 -21.859375 22.828125 -23.296875 C 22.453125 -24.734375 21.972656 -25.882812 21.390625 -26.75 C 20.804688 -27.613281 20.113281 -28.222656 19.3125 -28.578125 C 18.519531 -28.941406 17.675781 -29.125 16.78125 -29.125 Z M 16.78125 -29.125 "/></g></g></g><g fill="#737373" fill-opacity="1"><g transform="translate(331.238949, 509.26029)"><g><path d="M 36.15625 -20.046875 C 35.019531 -16.953125 33.984375 -14.359375 33.046875 -12.265625 C 32.109375 -10.171875 31.195312 -8.484375 30.3125 -7.203125 C 29.4375 -5.921875 28.566406 -5 27.703125 -4.4375 C 26.835938 -3.875 25.890625 -3.59375 24.859375 -3.59375 C 23.609375 -3.59375 22.535156 -4.03125 21.640625 -4.90625 C 20.742188 -5.789062 20.1875 -7.15625 19.96875 -9 C 19.070312 -7.070312 17.910156 -5.5 16.484375 -4.28125 C 15.066406 -3.070312 13.285156 -2.46875 11.140625 -2.46875 C 9.992188 -2.46875 8.894531 -2.675781 7.84375 -3.09375 C 6.800781 -3.507812 5.875 -4.15625 5.0625 -5.03125 C 4.25 -5.914062 3.597656 -7.023438 3.109375 -8.359375 C 2.628906 -9.703125 2.390625 -11.28125 2.390625 -13.09375 C 2.390625 -14.9375 2.617188 -16.664062 3.078125 -18.28125 C 3.535156 -19.90625 4.140625 -21.394531 4.890625 -22.75 C 5.648438 -24.101562 6.523438 -25.304688 7.515625 -26.359375 C 8.503906 -27.421875 9.53125 -28.316406 10.59375 -29.046875 C 11.65625 -29.773438 12.710938 -30.332031 13.765625 -30.71875 C 14.828125 -31.113281 15.804688 -31.3125 16.703125 -31.3125 C 17.484375 -31.3125 18.234375 -31.210938 18.953125 -31.015625 C 19.679688 -30.816406 20.332031 -30.5 20.90625 -30.0625 C 21.476562 -29.632812 21.9375 -29.054688 22.28125 -28.328125 C 22.632812 -27.609375 22.8125 -26.703125 22.8125 -25.609375 C 22.8125 -24.328125 22.566406 -23.210938 22.078125 -22.265625 C 21.585938 -21.316406 21 -20.519531 20.3125 -19.875 C 19.632812 -19.238281 18.9375 -18.722656 18.21875 -18.328125 C 17.507812 -17.941406 16.945312 -17.664062 16.53125 -17.5 L 16.03125 -19.125 C 16.113281 -19.125 16.425781 -19.234375 16.96875 -19.453125 C 17.507812 -19.679688 18.082031 -20.050781 18.6875 -20.5625 C 19.289062 -21.082031 19.84375 -21.75 20.34375 -22.5625 C 20.84375 -23.375 21.09375 -24.363281 21.09375 -25.53125 C 21.09375 -26.875 20.710938 -27.898438 19.953125 -28.609375 C 19.203125 -29.316406 18.242188 -29.671875 17.078125 -29.671875 C 16.179688 -29.671875 15.132812 -29.347656 13.9375 -28.703125 C 12.738281 -28.066406 11.585938 -27.0625 10.484375 -25.6875 C 9.378906 -24.320312 8.441406 -22.59375 7.671875 -20.5 C 6.910156 -18.414062 6.53125 -15.921875 6.53125 -13.015625 C 6.53125 -10.140625 7.035156 -7.945312 8.046875 -6.4375 C 9.066406 -4.9375 10.445312 -4.1875 12.1875 -4.1875 C 13.050781 -4.1875 13.878906 -4.429688 14.671875 -4.921875 C 15.460938 -5.410156 16.191406 -6.054688 16.859375 -6.859375 C 17.535156 -7.671875 18.140625 -8.613281 18.671875 -9.6875 C 19.203125 -10.757812 19.660156 -11.867188 20.046875 -13.015625 C 20.046875 -13.910156 20.148438 -14.960938 20.359375 -16.171875 C 20.566406 -17.390625 20.894531 -18.625 21.34375 -19.875 L 23.90625 -19.046875 C 23.757812 -18.679688 23.613281 -18.203125 23.46875 -17.609375 C 23.332031 -17.023438 23.203125 -16.382812 23.078125 -15.6875 C 22.953125 -15 22.847656 -14.285156 22.765625 -13.546875 C 22.679688 -12.804688 22.640625 -12.085938 22.640625 -11.390625 C 22.640625 -9.210938 22.851562 -7.710938 23.28125 -6.890625 C 23.71875 -6.066406 24.46875 -5.65625 25.53125 -5.65625 C 26.144531 -5.65625 26.75 -5.875 27.34375 -6.3125 C 27.945312 -6.757812 28.597656 -7.539062 29.296875 -8.65625 C 29.992188 -9.78125 30.757812 -11.296875 31.59375 -13.203125 C 32.4375 -15.117188 33.414062 -17.539062 34.53125 -20.46875 Z M 36.15625 -20.046875 "/></g></g></g><g fill="#737373" fill-opacity="1"><g transform="translate(361.83661, 509.26029)"><g><path d="M 16.359375 -29.671875 C 17.585938 -29.671875 18.640625 -29.507812 19.515625 -29.1875 C 20.398438 -28.875 21.125 -28.546875 21.6875 -28.203125 C 21.875 -31.859375 22.191406 -35.101562 22.640625 -37.9375 C 23.085938 -40.769531 23.609375 -43.238281 24.203125 -45.34375 C 24.804688 -47.457031 25.457031 -49.234375 26.15625 -50.671875 C 26.851562 -52.109375 27.5625 -53.265625 28.28125 -54.140625 C 29.007812 -55.015625 29.71875 -55.640625 30.40625 -56.015625 C 31.09375 -56.398438 31.726562 -56.59375 32.3125 -56.59375 C 33.570312 -56.59375 34.523438 -56.0625 35.171875 -55 C 35.828125 -53.9375 36.15625 -52.375 36.15625 -50.3125 C 36.15625 -49.21875 36.035156 -47.828125 35.796875 -46.140625 C 35.566406 -44.453125 35.21875 -42.566406 34.75 -40.484375 C 34.289062 -38.410156 33.734375 -36.1875 33.078125 -33.8125 C 32.429688 -31.445312 31.679688 -29.0625 30.828125 -26.65625 C 29.972656 -24.257812 29.039062 -21.890625 28.03125 -19.546875 C 27.03125 -17.203125 25.945312 -15 24.78125 -12.9375 C 24.894531 -11.34375 25.066406 -10.054688 25.296875 -9.078125 C 25.535156 -8.109375 25.835938 -7.347656 26.203125 -6.796875 C 26.566406 -6.253906 26.984375 -5.882812 27.453125 -5.6875 C 27.929688 -5.5 28.460938 -5.40625 29.046875 -5.40625 C 29.859375 -5.40625 30.640625 -5.675781 31.390625 -6.21875 C 32.140625 -6.757812 32.90625 -7.628906 33.6875 -8.828125 C 34.46875 -10.023438 35.273438 -11.578125 36.109375 -13.484375 C 36.953125 -15.398438 37.863281 -17.726562 38.84375 -20.46875 L 40.46875 -20.046875 C 39.664062 -17.898438 38.859375 -15.8125 38.046875 -13.78125 C 37.234375 -11.757812 36.359375 -9.960938 35.421875 -8.390625 C 34.492188 -6.816406 33.46875 -5.554688 32.34375 -4.609375 C 31.226562 -3.660156 29.960938 -3.1875 28.546875 -3.1875 C 26.785156 -3.1875 25.414062 -3.707031 24.4375 -4.75 C 23.46875 -5.789062 22.742188 -7.234375 22.265625 -9.078125 C 20.648438 -6.710938 18.910156 -4.820312 17.046875 -3.40625 C 15.191406 -2 13.25 -1.296875 11.21875 -1.296875 C 10.070312 -1.296875 8.96875 -1.507812 7.90625 -1.9375 C 6.84375 -2.375 5.90625 -3.046875 5.09375 -3.953125 C 4.289062 -4.859375 3.640625 -6.015625 3.140625 -7.421875 C 2.640625 -8.835938 2.390625 -10.535156 2.390625 -12.515625 C 2.390625 -14.578125 2.71875 -16.625 3.375 -18.65625 C 4.03125 -20.695312 4.960938 -22.535156 6.171875 -24.171875 C 7.390625 -25.804688 8.851562 -27.128906 10.5625 -28.140625 C 12.28125 -29.160156 14.210938 -29.671875 16.359375 -29.671875 Z M 12.6875 -3.6875 C 14.25 -3.6875 15.816406 -4.375 17.390625 -5.75 C 18.960938 -7.132812 20.476562 -8.957031 21.9375 -11.21875 C 21.769531 -12.53125 21.65625 -13.925781 21.59375 -15.40625 C 21.539062 -16.882812 21.515625 -18.457031 21.515625 -20.125 C 21.515625 -21.1875 21.515625 -22.238281 21.515625 -23.28125 C 21.515625 -24.332031 21.539062 -25.347656 21.59375 -26.328125 C 21.457031 -26.441406 21.253906 -26.59375 20.984375 -26.78125 C 20.722656 -26.976562 20.390625 -27.175781 19.984375 -27.375 C 19.578125 -27.570312 19.113281 -27.734375 18.59375 -27.859375 C 18.082031 -27.984375 17.507812 -28.046875 16.875 -28.046875 C 15.914062 -28.046875 14.835938 -27.78125 13.640625 -27.25 C 12.441406 -26.71875 11.304688 -25.859375 10.234375 -24.671875 C 9.160156 -23.484375 8.257812 -21.941406 7.53125 -20.046875 C 6.8125 -18.148438 6.453125 -15.832031 6.453125 -13.09375 C 6.453125 -11.789062 6.597656 -10.566406 6.890625 -9.421875 C 7.179688 -8.273438 7.597656 -7.273438 8.140625 -6.421875 C 8.679688 -5.566406 9.335938 -4.894531 10.109375 -4.40625 C 10.878906 -3.925781 11.738281 -3.6875 12.6875 -3.6875 Z M 34.53125 -50.3125 C 34.53125 -50.726562 34.507812 -51.203125 34.46875 -51.734375 C 34.425781 -52.265625 34.332031 -52.757812 34.1875 -53.21875 C 34.050781 -53.675781 33.847656 -54.066406 33.578125 -54.390625 C 33.316406 -54.710938 32.953125 -54.875 32.484375 -54.875 C 31.335938 -54.875 30.28125 -53.921875 29.3125 -52.015625 C 28.351562 -50.117188 27.523438 -47.503906 26.828125 -44.171875 C 26.128906 -40.835938 25.582031 -36.925781 25.1875 -32.4375 C 24.800781 -27.945312 24.609375 -23.101562 24.609375 -17.90625 L 24.609375 -16.03125 C 25.554688 -17.894531 26.460938 -19.890625 27.328125 -22.015625 C 28.191406 -24.140625 28.992188 -26.273438 29.734375 -28.421875 C 30.472656 -30.566406 31.132812 -32.695312 31.71875 -34.8125 C 32.3125 -36.9375 32.816406 -38.953125 33.234375 -40.859375 C 33.648438 -42.773438 33.96875 -44.539062 34.1875 -46.15625 C 34.414062 -47.78125 34.53125 -49.164062 34.53125 -50.3125 Z M 34.53125 -50.3125 "/></g></g></g><g fill="#737373" fill-opacity="1"><g transform="translate(396.745565, 509.26029)"><g><path d="M 8.75 -4.359375 C 6.988281 -4.359375 5.53125 -5.066406 4.375 -6.484375 C 3.21875 -7.910156 2.640625 -10.0625 2.640625 -12.9375 C 2.640625 -14.832031 3.019531 -17.25 3.78125 -20.1875 C 4.550781 -23.132812 5.882812 -26.460938 7.78125 -30.171875 L 9.328125 -29.765625 C 9.160156 -29.035156 8.890625 -28.039062 8.515625 -26.78125 C 8.140625 -25.53125 7.765625 -24.128906 7.390625 -22.578125 C 7.015625 -21.023438 6.6875 -19.40625 6.40625 -17.71875 C 6.125 -16.03125 5.984375 -14.40625 5.984375 -12.84375 C 5.984375 -11.53125 6.082031 -10.460938 6.28125 -9.640625 C 6.476562 -8.816406 6.734375 -8.175781 7.046875 -7.71875 C 7.367188 -7.257812 7.742188 -6.945312 8.171875 -6.78125 C 8.609375 -6.613281 9.078125 -6.53125 9.578125 -6.53125 C 10.390625 -6.53125 11.15625 -6.78125 11.875 -7.28125 C 12.601562 -7.78125 13.296875 -8.441406 13.953125 -9.265625 C 14.609375 -10.085938 15.222656 -11.007812 15.796875 -12.03125 C 16.367188 -13.050781 16.882812 -14.078125 17.34375 -15.109375 C 17.8125 -16.140625 18.222656 -17.125 18.578125 -18.0625 C 18.941406 -19 19.238281 -19.800781 19.46875 -20.46875 L 21.09375 -20.046875 C 20.789062 -19.210938 20.4375 -18.242188 20.03125 -17.140625 C 19.625 -16.035156 19.160156 -14.894531 18.640625 -13.71875 C 18.128906 -12.550781 17.550781 -11.410156 16.90625 -10.296875 C 16.269531 -9.179688 15.546875 -8.179688 14.734375 -7.296875 C 13.921875 -6.421875 13.019531 -5.710938 12.03125 -5.171875 C 11.039062 -4.628906 9.945312 -4.359375 8.75 -4.359375 Z M 15.53125 -43.359375 C 15.53125 -42.378906 15.148438 -41.625 14.390625 -41.09375 C 13.640625 -40.570312 12.691406 -40.3125 11.546875 -40.3125 C 10.960938 -40.3125 10.410156 -40.398438 9.890625 -40.578125 C 9.378906 -40.753906 8.9375 -40.988281 8.5625 -41.28125 C 8.1875 -41.582031 7.890625 -41.929688 7.671875 -42.328125 C 7.460938 -42.734375 7.359375 -43.160156 7.359375 -43.609375 C 7.359375 -44.554688 7.726562 -45.320312 8.46875 -45.90625 C 9.207031 -46.5 10.066406 -46.796875 11.046875 -46.796875 C 11.742188 -46.796875 12.367188 -46.691406 12.921875 -46.484375 C 13.484375 -46.273438 13.957031 -46 14.34375 -45.65625 C 14.738281 -45.320312 15.035156 -44.953125 15.234375 -44.546875 C 15.429688 -44.148438 15.53125 -43.753906 15.53125 -43.359375 Z M 13.265625 -43.359375 C 13.265625 -43.640625 13.144531 -43.894531 12.90625 -44.125 C 12.675781 -44.363281 12.320312 -44.484375 11.84375 -44.484375 C 10.976562 -44.484375 10.546875 -44.164062 10.546875 -43.53125 C 10.546875 -43.21875 10.675781 -42.957031 10.9375 -42.75 C 11.207031 -42.539062 11.566406 -42.4375 12.015625 -42.4375 C 12.429688 -42.4375 12.742188 -42.523438 12.953125 -42.703125 C 13.160156 -42.890625 13.265625 -43.109375 13.265625 -43.359375 Z M 13.265625 -43.359375 "/></g></g></g><g fill="#737373" fill-opacity="1"><g transform="translate(412.274613, 509.26029)"><g><path d="M 3.9375 -20.46875 C 4.351562 -21.550781 4.804688 -22.585938 5.296875 -23.578125 C 5.785156 -24.578125 6.304688 -25.453125 6.859375 -26.203125 C 7.421875 -26.953125 8.03125 -27.554688 8.6875 -28.015625 C 9.34375 -28.484375 10.070312 -28.71875 10.875 -28.71875 C 11.269531 -28.71875 11.71875 -28.628906 12.21875 -28.453125 C 12.71875 -28.285156 13.195312 -27.953125 13.65625 -27.453125 C 14.125 -26.953125 14.507812 -26.226562 14.8125 -25.28125 C 15.125 -24.332031 15.28125 -23.078125 15.28125 -21.515625 C 15.28125 -20.703125 15.238281 -19.804688 15.15625 -18.828125 C 15.070312 -17.859375 14.988281 -16.898438 14.90625 -15.953125 C 15.769531 -17.785156 16.625 -19.335938 17.46875 -20.609375 C 18.320312 -21.878906 19.160156 -22.894531 19.984375 -23.65625 C 20.804688 -24.425781 21.617188 -24.984375 22.421875 -25.328125 C 23.234375 -25.679688 24.046875 -25.859375 24.859375 -25.859375 C 25.222656 -25.859375 25.648438 -25.773438 26.140625 -25.609375 C 26.628906 -25.441406 27.085938 -25.148438 27.515625 -24.734375 C 27.953125 -24.316406 28.316406 -23.742188 28.609375 -23.015625 C 28.898438 -22.296875 29.046875 -21.363281 29.046875 -20.21875 C 29.046875 -19.289062 28.972656 -18.367188 28.828125 -17.453125 C 28.691406 -16.535156 28.539062 -15.644531 28.375 -14.78125 C 28.207031 -13.914062 28.050781 -13.097656 27.90625 -12.328125 C 27.769531 -11.554688 27.703125 -10.878906 27.703125 -10.296875 C 27.703125 -8.898438 27.953125 -7.832031 28.453125 -7.09375 C 28.960938 -6.351562 29.734375 -5.984375 30.765625 -5.984375 C 31.597656 -5.984375 32.390625 -6.296875 33.140625 -6.921875 C 33.898438 -7.554688 34.609375 -8.359375 35.265625 -9.328125 C 35.921875 -10.304688 36.519531 -11.378906 37.0625 -12.546875 C 37.601562 -13.722656 38.078125 -14.847656 38.484375 -15.921875 C 38.890625 -16.992188 39.226562 -17.941406 39.5 -18.765625 C 39.78125 -19.585938 39.976562 -20.15625 40.09375 -20.46875 L 41.734375 -20.046875 C 41.335938 -19.066406 40.921875 -17.984375 40.484375 -16.796875 C 40.054688 -15.617188 39.578125 -14.425781 39.046875 -13.21875 C 38.515625 -12.019531 37.941406 -10.851562 37.328125 -9.71875 C 36.710938 -8.59375 36.03125 -7.597656 35.28125 -6.734375 C 34.53125 -5.867188 33.710938 -5.171875 32.828125 -4.640625 C 31.953125 -4.109375 30.984375 -3.84375 29.921875 -3.84375 C 29.035156 -3.84375 28.265625 -4.015625 27.609375 -4.359375 C 26.953125 -4.710938 26.398438 -5.179688 25.953125 -5.765625 C 25.503906 -6.359375 25.164062 -7.054688 24.9375 -7.859375 C 24.71875 -8.671875 24.609375 -9.539062 24.609375 -10.46875 C 24.609375 -11.5 24.695312 -12.554688 24.875 -13.640625 C 25.0625 -14.734375 25.257812 -15.78125 25.46875 -16.78125 C 25.675781 -17.789062 25.867188 -18.71875 26.046875 -19.5625 C 26.234375 -20.414062 26.328125 -21.125 26.328125 -21.6875 C 26.328125 -22.550781 26.160156 -23.195312 25.828125 -23.625 C 25.492188 -24.0625 25.03125 -24.28125 24.4375 -24.28125 C 23.632812 -24.28125 22.847656 -23.984375 22.078125 -23.390625 C 21.304688 -22.804688 20.566406 -22.023438 19.859375 -21.046875 C 19.148438 -20.078125 18.472656 -18.960938 17.828125 -17.703125 C 17.191406 -16.453125 16.597656 -15.160156 16.046875 -13.828125 C 15.503906 -12.503906 15.003906 -11.1875 14.546875 -9.875 C 14.085938 -8.5625 13.6875 -7.375 13.34375 -6.3125 C 13.007812 -5.257812 12.722656 -4.363281 12.484375 -3.625 C 12.253906 -2.882812 12.097656 -2.414062 12.015625 -2.21875 L 9.578125 -2.640625 C 9.921875 -4.285156 10.226562 -6.019531 10.5 -7.84375 C 10.78125 -9.675781 11.023438 -11.476562 11.234375 -13.25 C 11.441406 -15.019531 11.609375 -16.710938 11.734375 -18.328125 C 11.859375 -19.953125 11.921875 -21.390625 11.921875 -22.640625 C 11.921875 -24.347656 11.8125 -25.5 11.59375 -26.09375 C 11.375 -26.695312 10.96875 -27 10.375 -27 C 9.875 -27 9.398438 -26.804688 8.953125 -26.421875 C 8.503906 -26.046875 8.09375 -25.546875 7.71875 -24.921875 C 7.34375 -24.296875 6.972656 -23.5625 6.609375 -22.71875 C 6.242188 -21.882812 5.894531 -20.992188 5.5625 -20.046875 Z M 3.9375 -20.46875 "/></g></g></g><g fill="#737373" fill-opacity="1"><g transform="translate(448.439277, 509.26029)"><g><path d="M 11.21875 19.796875 C 9.601562 19.796875 8.171875 19.554688 6.921875 19.078125 C 5.679688 18.609375 4.640625 17.960938 3.796875 17.140625 C 2.960938 16.316406 2.335938 15.335938 1.921875 14.203125 C 1.503906 13.078125 1.296875 11.859375 1.296875 10.546875 C 1.296875 9.378906 1.503906 8.273438 1.921875 7.234375 C 2.335938 6.203125 2.898438 5.3125 3.609375 4.5625 C 4.328125 3.8125 5.148438 3.21875 6.078125 2.78125 C 7.015625 2.351562 7.988281 2.140625 9 2.140625 C 9.976562 2.140625 10.929688 2.410156 11.859375 2.953125 C 12.796875 3.492188 13.695312 4.253906 14.5625 5.234375 L 13.1875 6.28125 C 12.539062 5.46875 11.847656 4.859375 11.109375 4.453125 C 10.367188 4.046875 9.640625 3.84375 8.921875 3.84375 C 8.109375 3.84375 7.34375 4.015625 6.625 4.359375 C 5.914062 4.710938 5.28125 5.179688 4.71875 5.765625 C 4.164062 6.359375 3.726562 7.046875 3.40625 7.828125 C 3.09375 8.609375 2.9375 9.429688 2.9375 10.296875 C 2.9375 11.410156 3.101562 12.441406 3.4375 13.390625 C 3.769531 14.335938 4.285156 15.164062 4.984375 15.875 C 5.679688 16.59375 6.546875 17.15625 7.578125 17.5625 C 8.609375 17.96875 9.820312 18.171875 11.21875 18.171875 C 13.144531 18.171875 14.773438 17.710938 16.109375 16.796875 C 17.453125 15.890625 18.539062 14.710938 19.375 13.265625 C 20.21875 11.816406 20.828125 10.175781 21.203125 8.34375 C 21.578125 6.519531 21.765625 4.6875 21.765625 2.84375 L 21.765625 -6.859375 C 20.566406 -5.210938 19.066406 -3.875 17.265625 -2.84375 C 15.460938 -1.8125 13.332031 -1.296875 10.875 -1.296875 C 9.820312 -1.296875 8.765625 -1.46875 7.703125 -1.8125 C 6.640625 -2.164062 5.679688 -2.757812 4.828125 -3.59375 C 3.984375 -4.4375 3.296875 -5.566406 2.765625 -6.984375 C 2.234375 -8.410156 1.96875 -10.195312 1.96875 -12.34375 C 1.96875 -13.820312 2.171875 -15.304688 2.578125 -16.796875 C 2.984375 -18.296875 3.546875 -19.742188 4.265625 -21.140625 C 4.992188 -22.535156 5.859375 -23.84375 6.859375 -25.0625 C 7.867188 -26.289062 8.972656 -27.359375 10.171875 -28.265625 C 11.367188 -29.179688 12.644531 -29.894531 14 -30.40625 C 15.351562 -30.925781 16.742188 -31.1875 18.171875 -31.1875 C 19.054688 -31.1875 19.851562 -31.046875 20.5625 -30.765625 C 21.28125 -30.484375 21.910156 -30.117188 22.453125 -29.671875 C 22.992188 -29.222656 23.46875 -28.726562 23.875 -28.1875 C 24.28125 -27.644531 24.609375 -27.109375 24.859375 -26.578125 C 25.253906 -27.691406 25.609375 -28.617188 25.921875 -29.359375 C 26.242188 -30.097656 26.519531 -30.675781 26.75 -31.09375 L 28.296875 -30.34375 C 28.210938 -30.175781 27.992188 -29.601562 27.640625 -28.625 C 27.296875 -27.644531 26.925781 -26.273438 26.53125 -24.515625 C 26.144531 -22.765625 25.796875 -20.632812 25.484375 -18.125 C 25.179688 -15.613281 25.03125 -12.738281 25.03125 -9.5 C 25.03125 -8.769531 25.035156 -7.972656 25.046875 -7.109375 C 25.066406 -6.242188 25.078125 -5.363281 25.078125 -4.46875 C 25.078125 -3.582031 25.082031 -2.707031 25.09375 -1.84375 C 25.101562 -0.976562 25.109375 -0.195312 25.109375 0.5 C 25.109375 4.351562 24.691406 7.523438 23.859375 10.015625 C 23.023438 12.515625 21.941406 14.488281 20.609375 15.9375 C 19.285156 17.394531 17.789062 18.398438 16.125 18.953125 C 14.46875 19.515625 12.832031 19.796875 11.21875 19.796875 Z M 13.640625 -3.84375 C 14.585938 -3.84375 15.472656 -3.992188 16.296875 -4.296875 C 17.117188 -4.609375 17.875 -5.019531 18.5625 -5.53125 C 19.25 -6.050781 19.875 -6.664062 20.4375 -7.375 C 21.007812 -8.09375 21.507812 -8.859375 21.9375 -9.671875 C 22.101562 -12.960938 22.398438 -15.8125 22.828125 -18.21875 C 23.265625 -20.632812 23.71875 -22.707031 24.1875 -24.4375 C 24 -25.113281 23.734375 -25.757812 23.390625 -26.375 C 23.054688 -26.988281 22.644531 -27.53125 22.15625 -28 C 21.675781 -28.476562 21.109375 -28.863281 20.453125 -29.15625 C 19.796875 -29.445312 19.035156 -29.59375 18.171875 -29.59375 C 17.109375 -29.59375 15.863281 -29.25 14.4375 -28.5625 C 13.019531 -27.882812 11.664062 -26.851562 10.375 -25.46875 C 9.09375 -24.082031 8.007812 -22.359375 7.125 -20.296875 C 6.25 -18.234375 5.8125 -15.832031 5.8125 -13.09375 C 5.8125 -11.757812 5.960938 -10.519531 6.265625 -9.375 C 6.578125 -8.226562 7.050781 -7.25 7.6875 -6.4375 C 8.332031 -5.632812 9.148438 -5 10.140625 -4.53125 C 11.140625 -4.070312 12.304688 -3.84375 13.640625 -3.84375 Z M 13.640625 -3.84375 "/></g></g></g><g fill="#737373" fill-opacity="1"><g transform="translate(477.153348, 509.26029)"><g><path d="M 10.375 -2.640625 C 10.375 -1.796875 10.070312 -1.070312 9.46875 -0.46875 C 8.875 0.125 8.144531 0.421875 7.28125 0.421875 C 6.46875 0.421875 5.757812 0.125 5.15625 -0.46875 C 4.5625 -1.070312 4.265625 -1.796875 4.265625 -2.640625 C 4.265625 -3.441406 4.5625 -4.144531 5.15625 -4.75 C 5.757812 -5.351562 6.46875 -5.65625 7.28125 -5.65625 C 8.144531 -5.65625 8.875 -5.351562 9.46875 -4.75 C 10.070312 -4.144531 10.375 -3.441406 10.375 -2.640625 Z M 10.375 -2.640625 "/></g></g></g><g fill="#737373" fill-opacity="1"><g transform="translate(490.00354, 509.26029)"><g><path d="M 10.375 -2.640625 C 10.375 -1.796875 10.070312 -1.070312 9.46875 -0.46875 C 8.875 0.125 8.144531 0.421875 7.28125 0.421875 C 6.46875 0.421875 5.757812 0.125 5.15625 -0.46875 C 4.5625 -1.070312 4.265625 -1.796875 4.265625 -2.640625 C 4.265625 -3.441406 4.5625 -4.144531 5.15625 -4.75 C 5.757812 -5.351562 6.46875 -5.65625 7.28125 -5.65625 C 8.144531 -5.65625 8.875 -5.351562 9.46875 -4.75 C 10.070312 -4.144531 10.375 -3.441406 10.375 -2.640625 Z M 10.375 -2.640625 "/></g></g></g><g fill="#737373" fill-opacity="1"><g transform="translate(502.853731, 509.26029)"><g><path d="M 10.375 -2.640625 C 10.375 -1.796875 10.070312 -1.070312 9.46875 -0.46875 C 8.875 0.125 8.144531 0.421875 7.28125 0.421875 C 6.46875 0.421875 5.757812 0.125 5.15625 -0.46875 C 4.5625 -1.070312 4.265625 -1.796875 4.265625 -2.640625 C 4.265625 -3.441406 4.5625 -4.144531 5.15625 -4.75 C 5.757812 -5.351562 6.46875 -5.65625 7.28125 -5.65625 C 8.144531 -5.65625 8.875 -5.351562 9.46875 -4.75 C 10.070312 -4.144531 10.375 -3.441406 10.375 -2.640625 Z M 10.375 -2.640625 "/></g></g></g></svg>